# xmcd CD database file
#
# Track frame offsets:
#	150
#	5810
#	44322
#	100152
#	144915
#	185142
#
# Disc length: 2874 seconds
#
# Revision: 0
# Processed by: cddbd v1.5.2PL0 Copyright (c) Steve Scherf et al.
# Submitted via: CDex 1.70beta3
#
DISCID=4d0b3806
DTITLE=Sonny Greenwich - Bird of Paradise
DYEAR=1986
DGENRE=Jazz
TTITLE0=Of Stars and Strings
TTITLE1=Bird of Paradise
TTITLE2=Only One Earth
TTITLE3=Not While I'm Around
TTITLE4=Night and Day
TTITLE5=Espanada
EXTD=YEAR: 1986
EXTT0=
EXTT1=
EXTT2=
EXTT3=
EXTT4=
EXTT5=
PLAYORDER=
